<?xml version="1.0" encoding="utf-8"?>
<svg xmlns="http://www.w3.org/2000/svg" viewBox="0 0 500 100" xmlns:bx="https://boxy-svg.com" width="500px" height="100px"><defs><bx:export><bx:file format="svg"/></bx:export></defs><g stroke-width="2.00" fill="none" stroke-linecap="butt" transform="matrix(0.377074, 0, 0, 0.377074, -8.60191, -166.486)"><path stroke="#978d40" vector-effect="non-scaling-stroke" d=" M 514.45 492.21 A 0.56 0.56 0.0 0 0 514.90 491.99 L 538.74 460.88 A 0.56 0.56 0.0 0 0 538.30 459.98 L 512.16 459.98 A 0.56 0.56 0.0 0 0 511.65 460.30 L 496.98 491.41 A 0.56 0.56 0.0 0 0 497.48 492.21 L 514.45 492.21"/><path stroke="#978d40" vector-effect="non-scaling-stroke" d=" M 806.01 636.14 L 830.69 636.14 A 0.61 0.61 0.0 0 0 831.30 635.53 L 831.30 460.62 A 0.65 0.65 0.0 0 0 830.65 459.97 L 804.41 459.97 A 0.77 0.77 0.0 0 0 803.64 460.74 Q 803.64 599.32 803.64 618.00 Q 803.64 621.41 805.44 635.64 A 0.57 0.57 0.0 0 0 806.01 636.14"/><path stroke="#978d40" vector-effect="non-scaling-stroke" d=" M 1058.44 619.39 C 1048.60 619.17 1038.91 617.95 1034.85 608.33 Q 1033.26 604.55 1033.25 593.03 Q 1033.22 535.60 1033.30 460.78 A 0.84 0.84 0.0 0 0 1032.46 459.94 L 1006.38 459.94 A 0.81 0.81 0.0 0 0 1005.57 460.75 Q 1005.60 545.72 1005.54 593.00 C 1005.52 605.77 1007.09 616.09 1013.28 626.28 C 1019.17 635.98 1027.66 637.00 1039.10 637.23 Q 1048.22 637.41 1058.58 636.25 A 0.64 0.63 -3.6 0 0 1059.14 635.62 L 1059.14 620.10 A 0.72 0.71 0.8 0 0 1058.44 619.39"/><path stroke="#978d40" vector-effect="non-scaling-stroke" d=" M 438.71 636.11 L 464.56 636.11 A 0.79 0.78 -0.0 0 0 465.35 635.33 Q 465.45 560.19 465.29 548.76 C 464.80 514.48 434.54 495.95 404.43 514.38 A 1.23 1.22 -16.0 0 0 403.85 515.42 L 403.85 531.46 A 0.75 0.74 -12.5 0 0 404.91 532.13 C 411.45 529.16 419.21 527.45 425.88 528.24 C 437.35 529.61 438.10 545.67 438.14 554.50 Q 438.31 589.50 438.16 631.25 Q 438.16 633.00 438.32 635.74 A 0.39 0.39 0.0 0 0 438.71 636.11"/><path stroke="#978d40" vector-effect="non-scaling-stroke" d=" M 644.07 536.15 L 644.07 514.68 A 2.30 2.29 -76.4 0 0 642.83 512.64 C 630.62 506.36 616.18 505.84 603.10 509.61 Q 587.21 514.19 577.90 528.18 Q 570.94 538.64 568.62 549.38 Q 563.77 571.84 569.69 596.58 Q 572.68 609.10 580.60 619.37 Q 594.75 637.72 618.01 637.17 Q 629.27 636.90 640.71 632.21 Q 642.69 631.40 643.66 630.60 A 1.11 1.10 70.7 0 0 644.07 629.74 L 644.07 608.85 A 0.82 0.82 0.0 0 0 642.68 608.25 C 626.69 623.23 607.10 613.68 599.95 595.51 Q 592.79 577.31 596.94 557.44 C 598.82 548.50 602.86 539.74 610.00 533.78 C 618.57 526.62 630.21 526.48 639.06 532.93 Q 640.71 534.14 643.58 536.39 A 0.30 0.30 0.0 0 0 644.07 536.15"/><path stroke="#978d40" vector-effect="non-scaling-stroke" d=" M 794.46 536.36 L 794.46 514.65 A 2.55 2.54 -76.9 0 0 793.05 512.37 C 780.77 506.22 766.27 505.88 753.11 509.87 C 731.36 516.46 719.61 537.57 717.43 558.82 C 714.74 585.02 721.41 625.45 751.40 634.65 C 765.29 638.91 779.27 637.49 792.65 631.43 Q 794.54 630.58 794.50 628.30 Q 794.32 615.94 794.58 607.99 A 0.38 0.38 0.0 0 0 793.94 607.70 Q 791.75 609.72 788.63 611.79 C 777.05 619.43 762.59 615.10 755.10 604.22 C 743.63 587.55 743.48 564.61 751.01 546.38 Q 754.42 538.12 761.62 532.61 Q 767.22 528.34 774.50 528.27 C 782.64 528.20 788.14 531.50 794.01 536.57 A 0.27 0.27 0.0 0 0 794.46 536.36"/><path stroke="#978d40" vector-effect="non-scaling-stroke" d=" M 232.43 620.22 Q 233.80 622.68 234.25 623.45 Q 240.29 633.86 252.04 636.50 A 1.53 1.53 0.0 0 0 253.75 635.66 L 260.15 622.09 A 0.97 0.96 30.6 0 0 259.84 620.90 C 254.58 617.14 253.75 608.31 253.45 601.12 Q 253.44 600.87 253.16 564.27 C 253.07 551.80 252.55 540.89 249.45 530.55 C 246.18 519.65 236.41 511.61 225.39 509.11 C 209.43 505.50 191.11 507.86 176.71 514.68 Q 170.69 517.54 166.74 521.18 A 0.72 0.71 52.9 0 0 166.62 522.09 L 175.99 536.46 A 0.88 0.88 0.0 0 0 177.27 536.66 C 186.70 529.12 199.06 524.93 211.21 526.56 C 217.31 527.38 221.70 529.83 223.52 535.54 Q 225.56 541.97 225.78 550.50 Q 225.82 552.00 225.91 603.71 Q 225.91 605.92 224.96 607.20 Q 218.77 615.45 209.04 618.09 A 0.86 0.84 -7.6 0 0 208.40 618.91 L 208.40 634.61 A 0.57 0.57 0.0 0 0 209.10 635.16 Q 217.64 633.03 225.30 627.54 Q 228.40 625.32 231.75 620.20 A 0.40 0.40 0.0 0 1 232.43 620.22"/><path stroke="#978d40" vector-effect="non-scaling-stroke" d=" M 393.87 636.15 A 0.92 0.92 0.0 0 0 394.79 635.22 Q 394.61 606.95 394.82 552.01 C 394.87 539.76 394.05 529.34 385.52 520.23 C 378.48 512.72 370.02 507.51 359.20 507.44 Q 346.14 507.35 334.38 514.20 A 1.53 1.52 -15.0 0 0 333.61 515.52 L 333.61 531.36 A 0.83 0.83 0.0 0 0 334.78 532.11 Q 342.54 528.56 351.51 528.03 C 364.96 527.25 367.23 541.14 367.22 551.50 Q 367.19 587.82 367.22 635.61 A 0.54 0.54 0.0 0 0 367.76 636.15 L 393.87 636.15"/><path stroke="#978d40" vector-effect="non-scaling-stroke" d=" M 941.91 620.15 Q 943.29 622.61 943.74 623.38 Q 949.78 633.78 961.53 636.41 A 1.53 1.53 0.0 0 0 963.24 635.57 L 969.62 621.99 A 0.97 0.96 30.6 0 0 969.31 620.81 C 964.05 617.05 963.21 608.23 962.91 601.04 Q 962.90 600.79 962.59 564.20 C 962.49 551.74 961.96 540.83 958.85 530.50 C 955.57 519.61 945.80 511.58 934.78 509.09 C 918.82 505.49 900.51 507.87 886.12 514.70 Q 880.11 517.56 876.16 521.21 A 0.72 0.71 52.8 0 0 876.04 522.12 L 885.42 536.47 A 0.88 0.88 0.0 0 0 886.70 536.67 C 896.12 529.12 908.47 524.93 920.62 526.54 C 926.72 527.36 931.11 529.80 932.93 535.51 Q 934.98 541.94 935.20 550.46 Q 935.25 551.96 935.38 603.65 Q 935.38 605.86 934.43 607.14 Q 928.25 615.39 918.53 618.04 A 0.86 0.84 -7.6 0 0 917.89 618.86 L 917.91 634.56 A 0.57 0.57 0.0 0 0 918.61 635.10 Q 927.14 632.97 934.79 627.47 Q 937.89 625.25 941.23 620.13 A 0.40 0.40 0.0 0 1 941.91 620.15"/><path stroke="#978d40" vector-effect="non-scaling-stroke" d=" M 1160.06 620.02 Q 1161.44 622.47 1161.89 623.24 Q 1167.93 633.62 1179.67 636.24 A 1.53 1.53 0.0 0 0 1181.37 635.40 L 1187.74 621.84 A 0.96 0.96 0.0 0 0 1187.43 620.65 C 1182.17 616.91 1181.33 608.09 1181.02 600.91 Q 1181.01 600.66 1180.68 564.12 C 1180.57 551.67 1180.03 540.78 1176.92 530.46 C 1173.64 519.58 1163.87 511.57 1152.86 509.09 C 1136.92 505.51 1118.63 507.89 1104.27 514.72 Q 1098.26 517.59 1094.32 521.23 A 0.72 0.71 52.8 0 0 1094.20 522.14 L 1103.58 536.47 A 0.88 0.88 0.0 0 0 1104.86 536.67 C 1114.26 529.13 1126.60 524.92 1138.73 526.53 C 1144.82 527.34 1149.21 529.78 1151.04 535.48 Q 1153.08 541.90 1153.32 550.41 Q 1153.36 551.91 1153.53 603.54 Q 1153.53 605.75 1152.59 607.03 Q 1146.42 615.27 1136.71 617.92 A 0.86 0.84 -7.7 0 0 1136.07 618.74 L 1136.09 634.42 A 0.57 0.57 0.0 0 0 1136.79 634.97 Q 1145.32 632.83 1152.96 627.34 Q 1156.05 625.11 1159.38 620.00 A 0.40 0.40 0.0 0 1 1160.06 620.02"/><path stroke="#978d40" vector-effect="non-scaling-stroke" d=" M 324.14 635.41 Q 324.17 632.00 324.19 527.88 Q 324.19 520.97 323.56 518.26 Q 322.62 514.14 321.44 508.90 A 0.79 0.78 83.5 0 0 320.68 508.29 L 297.20 508.29 A 0.64 0.64 0.0 0 0 296.56 508.93 L 296.56 635.58 A 0.56 0.55 -90.0 0 0 297.11 636.14 L 323.41 636.14 A 0.73 0.73 0.0 0 0 324.14 635.41"/><path stroke="#978d40" vector-effect="non-scaling-stroke" d=" M 531.71 508.85 A 0.57 0.57 0.0 0 0 531.14 508.28 L 504.58 508.28 A 0.57 0.57 0.0 0 0 504.01 508.85 L 504.01 635.57 A 0.57 0.57 0.0 0 0 504.58 636.14 L 531.14 636.14 A 0.57 0.57 0.0 0 0 531.71 635.57 L 531.71 508.85"/><path stroke="#978d40" vector-effect="non-scaling-stroke" d=" M 580.88 668.83 Q 590.44 680.33 605.01 684.49 Q 624.77 690.14 644.85 685.12 C 668.27 679.27 680.34 657.12 680.46 634.25 Q 680.76 576.98 680.72 508.86 A 0.56 0.56 0.0 0 0 680.16 508.30 L 656.69 508.30 A 0.73 0.72 -84.7 0 0 655.98 508.90 Q 655.10 513.76 654.08 518.05 Q 653.28 521.41 653.28 527.80 Q 653.27 586.62 653.31 628.02 C 653.33 644.28 650.27 660.16 631.95 664.36 C 619.85 667.13 604.30 663.94 596.64 653.21 A 0.65 0.65 0.0 0 0 595.66 653.13 L 580.92 667.87 A 0.71 0.71 0.0 0 0 580.88 668.83"/><path stroke="#978d40" vector-effect="non-scaling-stroke" d=" M 908.59 636.82 L 908.59 619.20 A 0.66 0.65 3.5 0 0 908.01 618.55 C 896.15 617.15 892.11 607.65 892.32 596.95 C 892.71 578.06 909.81 573.54 925.38 574.24 A 0.75 0.74 1.1 0 0 926.16 573.50 L 926.16 558.78 A 0.54 0.54 0.0 0 0 925.63 558.24 C 911.27 557.70 896.53 558.74 884.12 566.77 Q 862.68 580.66 867.64 608.87 C 871.40 630.22 888.55 637.40 908.17 637.25 A 0.43 0.42 -90.0 0 0 908.59 636.82"/><path stroke="#978d40" vector-effect="non-scaling-stroke" d=" M 1126.81 636.81 L 1126.76 619.19 A 0.66 0.65 3.3 0 0 1126.18 618.54 C 1114.32 617.17 1110.26 607.68 1110.44 596.98 C 1110.78 578.09 1127.87 573.53 1143.44 574.19 A 0.75 0.74 1.0 0 0 1144.22 573.45 L 1144.18 558.73 A 0.54 0.54 0.0 0 0 1143.65 558.20 C 1129.29 557.69 1114.56 558.77 1102.17 566.83 Q 1080.76 580.77 1085.79 608.96 C 1089.60 630.30 1106.77 637.44 1126.39 637.24 A 0.43 0.42 89.9 0 0 1126.81 636.81"/><path stroke="#978d40" vector-effect="non-scaling-stroke" d=" M 199.23 636.77 L 199.20 619.17 A 0.66 0.65 3.4 0 0 198.62 618.52 C 186.76 617.14 182.71 607.66 182.90 596.97 C 183.26 578.10 200.34 573.55 215.89 574.22 A 0.75 0.74 1.0 0 0 216.67 573.48 L 216.64 558.78 A 0.54 0.54 0.0 0 0 216.11 558.24 C 201.77 557.73 187.04 558.79 174.66 566.83 Q 153.26 580.75 158.27 608.92 C 162.06 630.24 179.21 637.39 198.81 637.20 A 0.43 0.42 89.9 0 0 199.23 636.77"/></g><path fill="#333332" d="M 185.384 19.114 L 178.985 19.114 C 178.831 19.113 178.73 18.952 178.796 18.813 L 184.328 7.082 C 184.363 7.008 184.438 6.961 184.52 6.961 L 194.377 6.961 C 194.539 6.963 194.64 7.139 194.557 7.279 C 194.553 7.287 194.548 7.294 194.543 7.3 L 185.553 19.031 C 185.513 19.084 185.45 19.115 185.384 19.114 Z"/><path fill="#333332" d="M 295.108 73.198 C 294.656 69.621 294.43 67.404 294.43 66.546 C 294.43 61.851 294.43 42.084 294.43 7.248 C 294.43 7.087 294.56 6.957 294.72 6.957 L 304.615 6.957 C 304.75 6.957 304.86 7.067 304.86 7.202 L 304.86 73.156 C 304.86 73.283 304.757 73.386 304.63 73.386 L 295.323 73.386 C 295.214 73.387 295.122 73.306 295.108 73.198 Z"/><path fill="#333332" d="M 390.772 67.338 L 390.772 73.19 C 390.773 73.311 390.682 73.413 390.561 73.428 C 387.957 73.72 385.508 73.843 383.216 73.797 C 378.902 73.711 375.701 73.326 373.48 69.669 C 371.145 65.826 370.553 61.935 370.561 57.119 C 370.576 45.234 370.58 28.611 370.572 7.251 C 370.572 7.083 370.709 6.946 370.878 6.946 L 380.712 6.946 C 380.887 6.946 381.029 7.088 381.029 7.263 C 381.008 26.071 381.002 42.694 381.01 57.131 C 381.012 60.027 381.213 61.95 381.613 62.9 C 383.144 66.527 386.798 66.988 390.508 67.07 C 390.655 67.075 390.772 67.193 390.772 67.338 Z"/><path fill="#333332" d="M 156.677 73.236 C 156.637 72.547 156.617 71.982 156.617 71.543 C 156.654 61.047 156.652 51.401 156.609 42.602 C 156.594 39.273 156.311 33.217 151.986 32.7 C 149.471 32.402 146.545 33.047 144.079 34.167 C 143.892 34.252 143.679 34.118 143.679 33.914 L 143.679 27.866 C 143.679 27.707 143.762 27.559 143.898 27.474 C 155.252 20.524 166.662 27.512 166.847 40.438 C 166.887 43.311 166.895 54.192 166.869 73.081 C 166.869 73.243 166.736 73.375 166.571 73.375 L 156.824 73.375 C 156.746 73.375 156.681 73.314 156.677 73.236 Z"/><path fill="#333332" d="M 234.26 35.683 C 234.262 35.77 234.17 35.827 234.093 35.785 C 234.087 35.782 234.081 35.778 234.075 35.773 C 233.354 35.208 232.786 34.773 232.371 34.469 C 229.034 32.037 224.645 32.089 221.413 34.789 C 218.721 37.037 217.197 40.34 216.489 43.711 C 215.445 48.706 215.824 53.491 217.624 58.066 C 220.32 64.917 227.707 68.518 233.736 62.87 C 233.907 62.704 234.193 62.786 234.251 63.017 C 234.257 63.043 234.26 63.069 234.26 63.096 L 234.26 70.973 C 234.26 71.1 234.203 71.219 234.105 71.297 C 233.862 71.499 233.491 71.701 232.993 71.905 C 230.117 73.084 227.264 73.707 224.434 73.775 C 218.586 73.913 213.884 71.676 210.327 67.063 C 208.336 64.481 206.965 61.617 206.213 58.469 C 204.725 52.25 204.591 46.318 205.81 40.672 C 206.393 37.972 207.559 35.307 209.309 32.678 C 211.649 29.161 214.817 26.827 218.811 25.675 C 223.743 24.254 229.188 24.45 233.792 26.818 C 234.08 26.966 234.26 27.263 234.26 27.587 L 234.26 35.683 Z"/><path fill="#333332" d="M 290.968 35.762 C 290.971 35.84 290.888 35.892 290.818 35.855 C 290.811 35.851 290.805 35.847 290.799 35.841 C 288.585 33.929 286.511 32.685 283.442 32.711 C 281.612 32.729 279.993 33.275 278.585 34.348 C 276.775 35.733 275.442 37.464 274.584 39.54 C 271.745 46.414 271.802 55.064 276.127 61.35 C 278.951 65.453 284.403 67.086 288.77 64.205 C 289.554 63.684 290.222 63.17 290.772 62.662 C 290.853 62.587 290.985 62.627 291.01 62.734 C 291.013 62.746 291.014 62.759 291.013 62.772 C 290.948 64.77 290.938 67.323 290.983 70.43 C 290.993 71.003 290.761 71.397 290.286 71.61 C 285.24 73.896 279.969 74.431 274.731 72.825 C 263.423 69.356 260.908 54.11 261.922 44.231 C 262.744 36.218 267.175 28.258 275.376 25.773 C 280.338 24.269 285.806 24.397 290.437 26.716 C 290.762 26.878 290.968 27.211 290.968 27.576 L 290.968 35.762 Z"/><path fill="#333332" d="M 78.785 67.376 C 77.943 68.663 77.132 69.586 76.353 70.144 C 74.427 71.524 72.391 72.481 70.244 73.017 C 70.11 73.048 69.981 72.947 69.98 72.81 L 69.98 66.889 C 69.98 66.745 70.079 66.618 70.222 66.58 C 72.668 65.917 74.669 64.548 76.225 62.474 C 76.463 62.152 76.583 61.714 76.583 61.158 C 76.56 48.159 76.544 41.471 76.534 41.094 C 76.478 38.95 76.194 37.069 75.682 35.453 C 74.995 33.3 73.34 32.376 71.04 32.067 C 66.458 31.452 61.798 33.032 58.242 35.875 C 58.09 35.996 57.867 35.961 57.759 35.8 L 54.226 30.381 C 54.156 30.27 54.175 30.125 54.271 30.038 C 55.264 29.123 56.517 28.306 58.031 27.587 C 63.461 25.015 70.369 24.126 76.387 25.487 C 80.542 26.429 84.226 29.461 85.459 33.571 C 86.628 37.47 86.824 41.584 86.858 46.286 C 86.928 55.487 86.965 60.118 86.967 60.181 C 87.081 62.892 87.393 66.222 89.377 67.64 C 89.519 67.743 89.568 67.931 89.494 68.089 L 87.081 73.205 C 86.966 73.448 86.698 73.58 86.436 73.522 C 83.482 72.859 81.246 71.218 79.728 68.601 C 79.614 68.408 79.386 68.002 79.041 67.383 C 78.985 67.286 78.847 67.282 78.785 67.376 Z"/><path fill="#333332" d="M 139.916 73.39 L 130.071 73.39 C 129.958 73.39 129.867 73.299 129.867 73.187 C 129.86 61.173 129.86 50.601 129.867 41.471 C 129.871 37.564 129.015 32.327 123.943 32.621 C 121.688 32.754 119.586 33.267 117.635 34.159 C 117.429 34.252 117.196 34.102 117.194 33.877 L 117.194 27.904 C 117.194 27.698 117.305 27.509 117.484 27.406 C 120.44 25.684 123.56 24.834 126.843 24.857 C 130.923 24.883 134.113 26.848 136.768 29.68 C 139.984 33.115 140.293 37.044 140.274 41.663 C 140.222 55.474 140.218 65.933 140.263 73.04 C 140.265 73.233 140.109 73.39 139.916 73.39 Z"/><path fill="#333332" d="M 346.568 67.357 C 346.512 67.26 346.373 67.256 346.311 67.349 C 345.472 68.637 344.662 69.559 343.883 70.117 C 341.96 71.5 339.926 72.459 337.782 72.994 C 337.649 73.025 337.522 72.927 337.518 72.791 L 337.51 66.871 C 337.51 66.726 337.609 66.599 337.752 66.561 C 340.195 65.895 342.194 64.525 343.747 62.451 C 343.986 62.13 344.105 61.691 344.105 61.135 C 344.073 48.141 344.05 41.456 344.038 41.079 C 343.982 38.937 343.697 37.058 343.182 35.441 C 342.495 33.288 340.84 32.368 338.54 32.059 C 333.958 31.452 329.302 33.032 325.75 35.879 C 325.598 36 325.375 35.965 325.267 35.803 L 321.73 30.392 C 321.66 30.281 321.679 30.137 321.775 30.049 C 322.768 29.132 324.02 28.314 325.531 27.595 C 330.957 25.019 337.861 24.122 343.879 25.479 C 348.035 26.418 351.719 29.446 352.955 33.552 C 354.128 37.448 354.328 41.561 354.366 46.26 C 354.444 55.458 354.484 60.088 354.486 60.151 C 354.599 62.862 354.916 66.188 356.9 67.606 C 357.04 67.709 357.088 67.895 357.016 68.051 L 354.611 73.172 C 354.496 73.414 354.228 73.546 353.966 73.488 C 351.012 72.827 348.776 71.189 347.258 68.575 C 347.145 68.381 346.915 67.975 346.568 67.357 Z"/><path fill="#333332" d="M 428.826 67.308 C 428.77 67.211 428.632 67.207 428.57 67.3 C 427.733 68.585 426.926 69.508 426.149 70.068 C 424.229 71.448 422.196 72.407 420.052 72.945 C 419.918 72.977 419.789 72.876 419.788 72.738 L 419.78 66.825 C 419.78 66.681 419.879 66.554 420.022 66.516 C 422.463 65.85 424.459 64.481 426.01 62.41 C 426.246 62.088 426.364 61.649 426.364 61.094 C 426.321 48.115 426.295 41.437 426.285 41.06 C 426.225 38.921 425.938 37.044 425.425 35.43 C 424.735 33.281 423.08 32.361 420.783 32.055 C 416.21 31.448 411.556 33.036 408.012 35.879 C 407.86 36 407.637 35.965 407.529 35.803 L 403.992 30.4 C 403.923 30.289 403.942 30.144 404.038 30.057 C 405.028 29.142 406.279 28.324 407.79 27.602 C 413.204 25.027 420.101 24.129 426.112 25.479 C 430.263 26.414 433.947 29.435 435.184 33.537 C 436.357 37.429 436.56 41.535 436.602 46.23 C 436.685 55.415 436.727 60.039 436.73 60.102 C 436.847 62.81 437.164 66.135 439.147 67.546 C 439.289 67.647 439.338 67.836 439.264 67.994 L 436.862 73.107 C 436.747 73.349 436.482 73.48 436.221 73.424 C 433.27 72.766 431.035 71.132 429.517 68.522 C 429.403 68.329 429.173 67.924 428.826 67.308 Z"/><path fill="#333332" d="M 113.623 73.111 C 113.623 73.263 113.5 73.386 113.348 73.386 L 103.43 73.386 C 103.316 73.386 103.223 73.292 103.223 73.175 L 103.223 25.419 C 103.223 25.286 103.331 25.178 103.464 25.178 L 112.318 25.178 C 112.455 25.178 112.573 25.273 112.605 25.408 C 112.901 26.725 113.168 27.901 113.404 28.937 C 113.562 29.618 113.642 30.827 113.642 32.564 C 113.637 58.738 113.63 72.254 113.623 73.111 Z"/><rect fill="#333332" x="181.447" y="25.174" width="10.445" height="48.213" rx="0.57"/><path fill="#333332" d="M 210.448 85.351 L 216.006 79.793 C 216.113 79.688 216.287 79.703 216.375 79.823 C 219.264 83.869 225.127 85.072 229.69 84.027 C 236.598 82.444 237.752 76.456 237.744 70.325 C 237.734 59.917 237.73 47.321 237.733 32.534 C 237.733 30.928 237.833 29.702 238.035 28.858 C 238.291 27.779 238.53 26.629 238.751 25.408 C 238.775 25.277 238.887 25.181 239.019 25.181 L 247.869 25.181 C 247.985 25.181 248.08 25.276 248.08 25.392 C 248.09 42.517 248.057 58.277 247.982 72.674 C 247.937 81.297 243.385 89.65 234.554 91.856 C 229.506 93.117 224.499 93.038 219.532 91.618 C 215.869 90.572 212.836 88.604 210.433 85.713 C 210.343 85.607 210.35 85.449 210.448 85.351 Z"/><path fill="#333332" d="M 334.004 73.643 C 334.004 73.732 333.933 73.805 333.845 73.805 C 326.447 73.862 319.98 71.154 318.562 63.104 C 317.316 56.012 319.387 50.721 324.777 47.229 C 329.456 44.201 335.014 43.809 340.429 44.012 C 340.54 44.014 340.629 44.105 340.629 44.216 L 340.629 49.767 C 340.629 49.925 340.495 50.052 340.335 50.046 C 334.464 49.782 328.016 51.486 327.869 58.609 C 327.789 62.644 329.313 66.226 333.785 66.754 C 333.91 66.769 334.004 66.874 334.004 66.999 L 334.004 73.643 Z"/><path fill="#333332" d="M 416.289 73.639 C 416.289 73.729 416.218 73.801 416.13 73.801 C 408.732 73.877 402.258 71.184 400.821 63.138 C 399.557 56.051 401.616 50.756 406.998 47.251 C 411.67 44.212 417.224 43.805 422.639 43.997 C 422.748 43.999 422.837 44.088 422.839 44.197 L 422.854 49.748 C 422.854 49.906 422.72 50.033 422.559 50.027 C 416.688 49.778 410.244 51.497 410.116 58.62 C 410.048 62.655 411.579 66.233 416.051 66.75 C 416.177 66.765 416.271 66.871 416.27 66.995 L 416.289 73.639 Z"/><path fill="#333332" d="M 66.522 73.624 C 66.522 73.714 66.452 73.786 66.364 73.786 C 58.973 73.858 52.507 71.162 51.078 63.123 C 49.818 56.041 51.878 50.751 57.258 47.251 C 61.926 44.22 67.48 43.82 72.887 44.012 C 72.998 44.014 73.087 44.105 73.087 44.216 L 73.099 49.759 C 73.099 49.918 72.965 50.044 72.805 50.038 C 66.941 49.785 60.501 51.501 60.365 58.616 C 60.293 62.647 61.82 66.222 66.292 66.742 C 66.418 66.758 66.512 66.863 66.511 66.988 L 66.522 73.624 Z"/></svg>